<?xml-stylesheet type="text/css" href="svg-stylesheet.css" ?>
<svg version="1.1" id="Layer_1" xmlns="http://www.w3.org/2000/svg" xmlns:xlink="http://www.w3.org/1999/xlink" x="0px" y="0px" width="100%" height="100%" viewBox="0 0 1000 1000" enable-background="new 0 0 1000 1000" xml:space="preserve">
<style>
path.linkedin {
    fill: #4875B4;
}
rect.g-back {
    fill: white;
}
</style>
 <g>
  <title>background</title>
  <rect class="g-back" id="canvas_background" height="96%" width="74%" y="2%" x="13%"/>
  <rect class="g-back" id="canvas_background" height="74%" width="96%" y="13%" x="2%"/>
 </g>
<path class="linkedin" d="M195.877 .25c-107.717 0 -195.877 88.158 -195.877 195.877l0 607.841c0 107.717 88.158 195.845 195.877 195.845l607.841 0c107.718 0 195.845 -88.127 195.845 -195.845l0 -607.841c0 -107.717 -88.127 -195.877 -195.845 -195.877l-607.841 0zm49.266 164.948c51.648 0 83.461 33.906 84.443 78.475 0 43.585 -32.797 78.444 -85.442 78.444l-.969 0c-50.665 0 -83.412 -34.857 -83.412 -78.444 0 -44.568 33.738 -78.475 85.379 -78.475zm445.08 208.31c99.329 0 173.79 64.922 173.79 204.436l0 260.449l-150.953 0l0 -242.987c0 -61.06 -21.847 -102.718 -76.476 -102.718 -41.704 0 -66.562 28.078 -77.476 55.202 -3.987 9.704 -4.967 23.257 -4.967 36.832l0 253.671l-150.953 0s1.981 -411.613 0 -454.233l150.984 0l0 64.324c20.06 -30.95 55.942 -74.977 136.051 -74.977zm-521.556 10.685l150.953 0l0 454.202l-150.953 0l0 -454.202z"/>
</svg>